<svg width="40" height="41" viewBox="0 0 40 41" fill="none" xmlns="http://www.w3.org/2000/svg">
<path d="M22.4589 9.37916C22.4589 10.5877 21.4792 11.5674 20.2707 11.5674C19.0621 11.5674 18.0824 10.5877 18.0824 9.37916C18.0824 8.17061 19.0621 7.19091 20.2707 7.19091C21.4792 7.19091 22.4589 8.17061 22.4589 9.37916ZM22.5281 0.788789C21.1832 -0.192617 19.3582 -0.192617 18.0133 0.788789L1.77251 12.6402C-0.365584 14.2004 0.738014 17.585 3.38487 17.585H3.85884V30.2766C1.91039 31.2727 0.576477 33.2996 0.576477 35.638V38.9204C0.576477 39.8267 1.31127 40.5616 2.21766 40.5616H38.3237C39.2301 40.5616 39.9649 39.8267 39.9649 38.9204V35.638C39.9649 33.2996 38.6309 31.2727 36.6825 30.2766V17.585H37.1565C39.8034 17.585 40.9069 14.2005 38.7688 12.6402L22.5281 0.788789ZM19.9481 3.44024C20.1403 3.30004 20.4011 3.30004 20.5932 3.44024L35.4788 14.3027H5.06262L19.9481 3.44024ZM33.4001 17.585V29.6203H29.0237V17.585H33.4001ZM25.7413 17.585V29.6203H21.9119V17.585H25.7413ZM18.6295 17.585V29.6203H14.8001V17.585H18.6295ZM6.59415 32.9027H33.9472C35.458 32.9027 36.6825 34.1275 36.6825 35.638V37.2792H3.85884V35.638C3.85884 34.1275 5.08347 32.9027 6.59415 32.9027ZM7.14121 29.6203V17.585H11.5177V29.6203H7.14121Z" fill="#0DB14B"/>
</svg>
