<svg width="16" height="16" viewBox="0 0 16 16" fill="none" xmlns="http://www.w3.org/2000/svg">
<g clip-path="url(#clip0_321_2092)">
<path d="M7.75361 0.413574C3.61766 0.413574 0.252502 3.77873 0.252502 7.91468C0.252502 12.0506 3.61766 15.4158 7.75361 15.4158C11.8896 15.4158 15.2547 12.0506 15.2547 7.91468C15.2547 3.77873 11.8896 0.413574 7.75361 0.413574ZM11.946 5.9407L7.15202 10.697C6.87002 10.979 6.41882 10.9978 6.11803 10.7158L3.58006 8.40347C3.27926 8.12148 3.26046 7.65148 3.52366 7.35069C3.80566 7.04989 4.27565 7.03109 4.57645 7.31309L6.58802 9.15546L10.8744 4.86912C11.1752 4.56832 11.6452 4.56832 11.946 4.86912C12.2468 5.16991 12.2468 5.63991 11.946 5.9407Z" fill="#0DB14B"/>
</g>
<defs>
<clipPath id="clip0_321_2092">
<rect width="15.0022" height="15.0022" fill="white" transform="translate(0.252502 0.413574)"/>
</clipPath>
</defs>
</svg>
