<svg width="50" height="50" viewBox="0 0 50 50" fill="none" xmlns="http://www.w3.org/2000/svg">
<path d="M15.6259 38.4683C18.9919 38.4683 21.7205 35.7397 21.7205 32.3737C21.7205 29.0077 18.9919 26.2791 15.6259 26.2791C12.2599 26.2791 9.53125 29.0077 9.53125 32.3737C9.53125 35.7397 12.2599 38.4683 15.6259 38.4683Z" stroke="white" stroke-width="3.00044" stroke-linecap="round" stroke-linejoin="round"/>
<path d="M6.48401 43.0394C7.54844 41.6201 8.9287 40.4682 10.5155 39.6748C12.1022 38.8814 13.8519 38.4684 15.626 38.4684C17.4 38.4684 19.1497 38.8814 20.7365 39.6748C22.3233 40.4682 23.7035 41.6201 24.768 43.0394" stroke="white" stroke-width="3.00044" stroke-linecap="round" stroke-linejoin="round"/>
<path d="M15.6259 18.6609C18.9919 18.6609 21.7205 15.9322 21.7205 12.5662C21.7205 9.20022 18.9919 6.47156 15.6259 6.47156C12.2599 6.47156 9.53125 9.20022 9.53125 12.5662C9.53125 15.9322 12.2599 18.6609 15.6259 18.6609Z" stroke="white" stroke-width="3.00044" stroke-linecap="round" stroke-linejoin="round"/>
<path d="M6.48401 23.2319C7.54844 21.8126 8.9287 20.6607 10.5155 19.8673C12.1022 19.0739 13.8519 18.6609 15.626 18.6609C17.4 18.6609 19.1497 19.0739 20.7365 19.8673C22.3233 20.6607 23.7035 21.8126 24.768 23.2319" stroke="white" stroke-width="3.00044" stroke-linecap="round" stroke-linejoin="round"/>
<path d="M33.9098 38.4683C37.2758 38.4683 40.0045 35.7397 40.0045 32.3737C40.0045 29.0077 37.2758 26.2791 33.9098 26.2791C30.5439 26.2791 27.8152 29.0077 27.8152 32.3737C27.8152 35.7397 30.5439 38.4683 33.9098 38.4683Z" stroke="white" stroke-width="3.00044" stroke-linecap="round" stroke-linejoin="round"/>
<path d="M24.7679 43.0394C25.8324 41.6201 27.2126 40.4682 28.7994 39.6748C30.3862 38.8814 32.1359 38.4684 33.9099 38.4684C35.684 38.4684 37.4337 38.8814 39.0204 39.6748C40.6072 40.4682 41.9875 41.6201 43.0519 43.0394" stroke="white" stroke-width="3.00044" stroke-linecap="round" stroke-linejoin="round"/>
<path d="M33.9098 18.6609C37.2758 18.6609 40.0045 15.9322 40.0045 12.5662C40.0045 9.20022 37.2758 6.47156 33.9098 6.47156C30.5439 6.47156 27.8152 9.20022 27.8152 12.5662C27.8152 15.9322 30.5439 18.6609 33.9098 18.6609Z" stroke="white" stroke-width="3.00044" stroke-linecap="round" stroke-linejoin="round"/>
<path d="M24.7679 23.2319C25.8324 21.8126 27.2126 20.6607 28.7994 19.8673C30.3862 19.0739 32.1359 18.6609 33.9099 18.6609C35.684 18.6609 37.4337 19.0739 39.0204 19.8673C40.6072 20.6607 41.9875 21.8126 43.0519 23.2319" stroke="white" stroke-width="3.00044" stroke-linecap="round" stroke-linejoin="round"/>
</svg>
