<svg width="50" height="50" viewBox="0 0 50 50" fill="none" xmlns="http://www.w3.org/2000/svg">
<path d="M25.1876 30.8501C29.3951 30.8501 32.806 27.4393 32.806 23.2318C32.806 19.0244 29.3951 15.6135 25.1876 15.6135C20.9802 15.6135 17.5693 19.0244 17.5693 23.2318C17.5693 27.4393 20.9802 30.8501 25.1876 30.8501Z" stroke="white" stroke-width="3.00044" stroke-linecap="round" stroke-linejoin="round"/>
<path d="M12.9604 38.3486C14.1068 36.0906 15.8561 34.1941 18.0143 32.8693C20.1726 31.5446 22.6555 30.8434 25.1878 30.8434C27.7202 30.8434 30.2031 31.5446 32.3613 32.8693C34.5196 34.1941 36.2688 36.0906 37.4152 38.3486" stroke="white" stroke-width="3.00044" stroke-linecap="round" stroke-linejoin="round"/>
<path d="M43.2185 21.7081C43.8613 25.5275 43.2737 29.4523 41.5404 32.9158C39.8071 36.3794 37.0179 39.2025 33.5755 40.9774C30.1331 42.7524 26.2157 43.3874 22.3889 42.7908C18.5621 42.1942 15.0239 40.3967 12.2852 37.6581C9.54659 34.9194 7.74918 31.3812 7.15254 27.5544C6.5559 23.7276 7.19091 19.8102 8.96589 16.3678C10.7409 12.9254 13.5639 10.1362 17.0275 8.40296C20.4911 6.66968 24.4159 6.08202 28.2352 6.72482" stroke="white" stroke-width="3.00044" stroke-linecap="round" stroke-linejoin="round"/>
<path d="M35.8534 11.0424L38.9007 14.0898L44.9954 7.99512" stroke="white" stroke-width="3.00044" stroke-linecap="round" stroke-linejoin="round"/>
</svg>
