<svg width="38" height="38" viewBox="0 0 38 38" fill="none" xmlns="http://www.w3.org/2000/svg">
<path d="M4.81776 20.5348C4.81776 28.35 11.0699 34.6021 18.885 34.6021C26.7002 34.6021 32.9523 28.35 32.9523 20.5348C32.9523 12.7197 26.7002 6.46753 18.885 6.46753H17.322" stroke="#0F402D" stroke-width="1.87564" stroke-miterlimit="10" stroke-linecap="round" stroke-linejoin="round"/>
<path d="M17.322 6.46771L20.4481 4.51392V8.4215L17.322 6.46771Z" stroke="#0F402D" stroke-width="1.87564"/>
<path d="M11.3941 11.1567C12.7997 13.2404 14.8301 15.6445 17.6415 15.9651C19.9842 16.2857 21.2337 15.1637 22.6394 15.9651C24.826 17.4076 25.7631 22.216 23.4203 24.7804C21.7023 26.8641 18.5786 27.1846 16.5482 26.3832C12.6435 24.9407 10.1446 18.6898 11.3941 11.1567Z" stroke="#0F402D" stroke-width="1.87564" stroke-miterlimit="10" stroke-linecap="round" stroke-linejoin="round"/>
<path d="M19.6719 21.7351C19.6719 21.7351 22.9518 25.4215 26.7002 26.0626" stroke="#0F402D" stroke-width="1.87564" stroke-miterlimit="10" stroke-linecap="round" stroke-linejoin="round"/>
</svg>
