<svg width="27" height="28" viewBox="0 0 27 28" fill="none" xmlns="http://www.w3.org/2000/svg">
<path d="M13.1267 4.07666H20.9931C21.2107 4.07666 21.4195 4.16312 21.5733 4.31701C21.7272 4.4709 21.8137 4.67962 21.8137 4.89725V22.9503C21.8137 23.1679 21.7272 23.3766 21.5733 23.5305C21.4195 23.6844 21.2107 23.7709 20.9931 23.7709H6.22245C6.00481 23.7709 5.79609 23.6844 5.6422 23.5305C5.48831 23.3766 5.40186 23.1679 5.40186 22.9503V11.8015C5.40196 11.5842 5.48828 11.3757 5.64188 11.222L12.5472 4.31668C12.7009 4.16308 12.9094 4.07676 13.1267 4.07666Z" stroke="#0DB14B" stroke-width="1.82875" stroke-linecap="round" stroke-linejoin="round"/>
<path d="M14.4283 7.35901H18.5313" stroke="#0DB14B" stroke-width="1.82875" stroke-linecap="round" stroke-linejoin="round"/>
<path d="M8.6842 13.1031L18.5313 20.4885" stroke="#0DB14B" stroke-width="1.82875" stroke-linecap="round" stroke-linejoin="round"/>
<path d="M18.5313 13.1031L8.6842 20.4885" stroke="#0DB14B" stroke-width="1.82875" stroke-linecap="round" stroke-linejoin="round"/>
<path d="M7.2831 9.58081L5.64191 7.93963C5.56562 7.86342 5.50509 7.77292 5.4638 7.6733C5.4225 7.57368 5.40125 7.4669 5.40125 7.35906C5.40125 7.25122 5.4225 7.14444 5.4638 7.04482C5.50509 6.94521 5.56562 6.8547 5.64191 6.77849L8.10369 4.31672C8.1799 4.24042 8.2704 4.1799 8.37002 4.1386C8.46964 4.09731 8.57642 4.07605 8.68426 4.07605C8.7921 4.07605 8.89888 4.09731 8.9985 4.1386C9.09811 4.1799 9.18862 4.24042 9.26483 4.31672L10.906 5.9579" stroke="#0DB14B" stroke-width="1.82875" stroke-linecap="round" stroke-linejoin="round"/>
</svg>
