<svg width="38" height="38" viewBox="0 0 38 38" fill="none" xmlns="http://www.w3.org/2000/svg">
<path d="M3.23294 28.3502C3.23294 28.7648 3.39762 29.1623 3.69074 29.4555C3.98387 29.7486 4.38143 29.9133 4.79597 29.9133H32.9305C33.3451 29.9133 33.7427 29.7486 34.0358 29.4555C34.3289 29.1623 34.4936 28.7648 34.4936 28.3502V25.2242C34.4936 24.8096 34.3289 24.4121 34.0358 24.1189C33.7427 23.8258 33.3451 23.6611 32.9305 23.6611H4.79597C4.38143 23.6611 3.98387 23.8258 3.69074 24.1189C3.39762 24.4121 3.23294 24.8096 3.23294 25.2242V28.3502Z" stroke="#0F402D" stroke-width="1.87564" stroke-linecap="round" stroke-linejoin="round"/>
<path d="M15.7372 15.8457V8.03056C15.7372 7.61602 15.9019 7.21846 16.195 6.92533C16.4881 6.63221 16.8857 6.46753 17.3002 6.46753H20.4263C20.8409 6.46753 21.2384 6.63221 21.5315 6.92533C21.8247 7.21846 21.9893 7.61602 21.9893 8.03056V15.8457" stroke="#0F402D" stroke-width="1.87564" stroke-linecap="round" stroke-linejoin="round"/>
<path d="M6.35901 23.661V18.9719C6.35901 16.4847 7.34707 14.0993 9.10582 12.3406C10.8646 10.5818 13.2499 9.59375 15.7372 9.59375" stroke="#0F402D" stroke-width="1.87564" stroke-linecap="round" stroke-linejoin="round"/>
<path d="M21.9893 9.59375C24.4766 9.59375 26.862 10.5818 28.6207 12.3406C30.3795 14.0993 31.3675 16.4847 31.3675 18.9719V23.661" stroke="#0F402D" stroke-width="1.50051" stroke-linecap="round" stroke-linejoin="round"/>
</svg>
