<svg width="45" height="45" viewBox="0 0 45 45" fill="none" xmlns="http://www.w3.org/2000/svg">
<path d="M4.21764 3.52895C3.91551 3.52895 3.67058 3.77388 3.67058 4.07601V31.4291C3.67058 31.7313 3.91551 31.9761 4.21764 31.9761H15.7059V35.2585H4.21764C2.1027 35.2585 0.388214 33.544 0.388214 31.4291V4.07601C0.388214 1.96107 2.1027 0.246582 4.21764 0.246582H16.253C18.3679 0.246582 20.0824 1.96107 20.0824 4.07601V10.6407C20.0824 10.9429 20.3273 11.1878 20.6295 11.1878H22.8177C24.9327 11.1878 26.6471 12.9023 26.6471 15.0172V15.1743L23.3648 18.2379V15.0172C23.3648 14.7151 23.1199 14.4702 22.8177 14.4702H20.6295C18.5145 14.4702 16.8 12.7557 16.8 10.6407V4.07601C16.8 3.77388 16.5551 3.52895 16.253 3.52895H4.21764ZM9.14119 8.4525C9.14119 9.35889 8.4064 10.0937 7.50001 10.0937C6.59362 10.0937 5.85883 9.35889 5.85883 8.4525C5.85883 7.54611 6.59362 6.81132 7.50001 6.81132C8.4064 6.81132 9.14119 7.54611 9.14119 8.4525ZM7.50001 16.6584C8.4064 16.6584 9.14119 15.9236 9.14119 15.0172C9.14119 14.1108 8.4064 13.376 7.50001 13.376C6.59362 13.376 5.85883 14.1108 5.85883 15.0172C5.85883 15.9236 6.59362 16.6584 7.50001 16.6584ZM9.14119 21.582C9.14119 22.4883 8.4064 23.2232 7.50001 23.2232C6.59362 23.2232 5.85883 22.4883 5.85883 21.582C5.85883 20.6756 6.59362 19.9408 7.50001 19.9408C8.4064 19.9408 9.14119 20.6756 9.14119 21.582ZM12.9706 10.0937C13.877 10.0937 14.6118 9.35889 14.6118 8.4525C14.6118 7.54611 13.877 6.81132 12.9706 6.81132C12.0642 6.81132 11.3294 7.54611 11.3294 8.4525C11.3294 9.35889 12.0642 10.0937 12.9706 10.0937ZM14.6118 15.0172C14.6118 15.9236 13.877 16.6584 12.9706 16.6584C12.0642 16.6584 11.3294 15.9236 11.3294 15.0172C11.3294 14.1108 12.0642 13.376 12.9706 13.376C13.877 13.376 14.6118 14.1108 14.6118 15.0172ZM12.9706 23.2232C13.877 23.2232 14.6118 22.4883 14.6118 21.582C14.6118 20.6756 13.877 19.9408 12.9706 19.9408C12.0642 19.9408 11.3294 20.6756 11.3294 21.582C11.3294 22.4883 12.0642 23.2232 12.9706 23.2232ZM33.6366 16.5239C32.1652 15.1507 29.882 15.1507 28.4107 16.5239L19.1106 25.2039C18.3347 25.9283 17.8942 26.9421 17.8942 28.0036V40.7291C17.8942 42.5418 19.3638 44.0115 21.1765 44.0115H25.553C27.3658 44.0115 28.8354 42.5418 28.8354 40.7291V35.2594H33.2119V40.7291C33.2119 42.5418 34.6815 44.0115 36.4942 44.0115H40.8707C42.6835 44.0115 44.1531 42.5418 44.1531 40.7291V28.0036C44.1531 26.9421 43.7126 25.9283 42.9367 25.2039L33.6366 16.5239ZM30.6503 18.9235C30.8606 18.7274 31.1867 18.7274 31.397 18.9235L40.697 27.6036C40.8077 27.7071 40.8707 27.8519 40.8707 28.0036V40.7291H36.4942V35.2594C36.4942 33.4466 35.0246 31.977 33.2119 31.977H28.8354C27.0227 31.977 25.553 33.4466 25.553 35.2594V40.7291H21.1765V28.0036C21.1765 27.8519 21.2396 27.7071 21.3503 27.6036L30.6503 18.9235Z" fill="#0DB14B"/>
</svg>
