<svg width="50" height="49" viewBox="0 0 50 49" fill="none" xmlns="http://www.w3.org/2000/svg">
<path d="M4.83168 3.85015C4.49509 3.85015 4.22222 4.12302 4.22222 4.45961V34.9328C4.22222 35.2695 4.49509 35.5423 4.83168 35.5423H17.6304V39.1991H4.83168C2.47549 39.1991 0.56543 37.289 0.56543 34.9328V4.45961C0.56543 2.10342 2.47549 0.193359 4.83168 0.193359H18.2399C20.5961 0.193359 22.5062 2.10342 22.5062 4.45961V11.7732C22.5062 12.1098 22.779 12.3827 23.1156 12.3827H25.5535C27.9097 12.3827 29.8197 14.2927 29.8197 16.6489V16.8239L26.163 20.2369V16.6489C26.163 16.3123 25.8902 16.0394 25.5535 16.0394H23.1156C20.7594 16.0394 18.8494 14.1294 18.8494 11.7732V4.45961C18.8494 4.12302 18.5765 3.85015 18.2399 3.85015H4.83168ZM10.3169 9.33533C10.3169 10.3451 9.49826 11.1637 8.48847 11.1637C7.47869 11.1637 6.66008 10.3451 6.66008 9.33533C6.66008 8.32555 7.47869 7.50694 8.48847 7.50694C9.49826 7.50694 10.3169 8.32555 10.3169 9.33533ZM8.48847 18.4773C9.49826 18.4773 10.3169 17.6587 10.3169 16.6489C10.3169 15.6391 9.49826 14.8205 8.48847 14.8205C7.47869 14.8205 6.66008 15.6391 6.66008 16.6489C6.66008 17.6587 7.47869 18.4773 8.48847 18.4773ZM10.3169 23.9625C10.3169 24.9722 9.49826 25.7909 8.48847 25.7909C7.47869 25.7909 6.66008 24.9722 6.66008 23.9625C6.66008 22.9527 7.47869 22.1341 8.48847 22.1341C9.49826 22.1341 10.3169 22.9527 10.3169 23.9625ZM14.5831 11.1637C15.5929 11.1637 16.4115 10.3451 16.4115 9.33533C16.4115 8.32555 15.5929 7.50694 14.5831 7.50694C13.5733 7.50694 12.7547 8.32555 12.7547 9.33533C12.7547 10.3451 13.5733 11.1637 14.5831 11.1637ZM16.4115 16.6489C16.4115 17.6587 15.5929 18.4773 14.5831 18.4773C13.5733 18.4773 12.7547 17.6587 12.7547 16.6489C12.7547 15.6391 13.5733 14.8205 14.5831 14.8205C15.5929 14.8205 16.4115 15.6391 16.4115 16.6489ZM14.5831 25.7909C15.5929 25.7909 16.4115 24.9722 16.4115 23.9625C16.4115 22.9527 15.5929 22.1341 14.5831 22.1341C13.5733 22.1341 12.7547 22.9527 12.7547 23.9625C12.7547 24.9722 13.5733 25.7909 14.5831 25.7909ZM37.6065 18.3275C35.9673 16.7976 33.4236 16.7976 31.7844 18.3275L21.4235 27.9976C20.559 28.8046 20.0683 29.934 20.0683 31.1166V45.2938C20.0683 47.3133 21.7056 48.9505 23.7251 48.9505H28.6008C30.6203 48.9505 32.2576 47.3133 32.2576 45.2938V39.2001H37.1333V45.2938C37.1333 47.3133 38.7706 48.9505 40.7901 48.9505H45.6658C47.6853 48.9505 49.3226 47.3133 49.3226 45.2938V31.1166C49.3226 29.934 48.8319 28.8046 47.9674 27.9976L37.6065 18.3275ZM34.2796 21.0007C34.5138 20.7823 34.8771 20.7823 35.1114 21.0007L45.4723 30.671C45.5956 30.7863 45.6658 30.9477 45.6658 31.1166V45.2938H40.7901V39.2001C40.7901 37.1806 39.1528 35.5433 37.1333 35.5433H32.2576C30.2381 35.5433 28.6008 37.1806 28.6008 39.2001V45.2938H23.7251V31.1166C23.7251 30.9477 23.7953 30.7863 23.9187 30.671L34.2796 21.0007Z" fill="white"/>
</svg>
