<svg width="38" height="38" viewBox="0 0 38 38" fill="none" xmlns="http://www.w3.org/2000/svg">
<path d="M21.9676 20.5351C21.9676 22.2616 20.5681 23.6612 18.8416 23.6612M26.6567 9.59388H26.6724M26.6567 20.5351C26.6567 24.8513 23.1578 28.3503 18.8416 28.3503C14.5254 28.3503 11.0264 24.8513 11.0264 20.5351C11.0264 16.2189 14.5254 12.7199 18.8416 12.7199C23.1578 12.7199 26.6567 16.2189 26.6567 20.5351ZM7.83783 33.0394H29.8453C30.674 33.0394 31.3458 32.3676 31.3458 31.5388V6.4053C31.3458 5.57659 30.674 4.90479 29.8453 4.90479H7.83783C7.00912 4.90479 6.33732 5.57659 6.33732 6.4053V31.5388C6.33732 32.3676 7.00912 33.0394 7.83783 33.0394Z" stroke="#0F402D" stroke-width="1.50051" stroke-linecap="round" stroke-linejoin="round"/>
</svg>
