<svg width="92" height="89" viewBox="0 0 92 89" fill="none" xmlns="http://www.w3.org/2000/svg">
<g clip-path="url(#clip0_4557_2110)">
<path d="M58.3971 87.4509C63.7571 86.4609 65.1571 83.3209 62.1871 78.8509C61.4371 77.7109 60.7071 76.5509 59.8971 75.4609C59.5971 75.0509 59.4271 74.6809 59.3571 74.3109" stroke="white" stroke-width="2" stroke-linecap="round" stroke-linejoin="round"/>
<path d="M25.6171 81.1109C29.4171 85.0209 32.7971 84.4409 34.8671 79.4909C35.3971 78.2309 35.9571 76.9809 36.4171 75.7009C36.6371 75.0909 36.9371 74.6809 37.3171 74.4209" stroke="white" stroke-width="2" stroke-linecap="round" stroke-linejoin="round"/>
<path d="M60.2271 72.201C60.2271 72.201 60.4071 70.491 60.5271 69.301C60.577 68.831 60.6771 68.371 60.8071 67.541C65.2071 70.441 69.6271 72.241 74.8671 71.291C77.537 70.811 78.687 70.341 81.7971 68.971C93.3471 63.881 92.8171 51.261 88.7371 45.351C82.0871 35.541 74.717 32.881 64.0171 36.541C62.2871 37.131 61.937 36.501 61.9971 35.171C62.1571 31.481 60.1271 30.261 56.7871 29.931C51.2471 29.381 45.7171 28.691 40.2171 27.851C36.9471 27.351 35.1171 28.431 34.9071 31.771C34.757 34.241 33.697 34.031 32.057 33.011C27.067 29.901 21.737 28.171 15.7871 29.411C15.7871 29.411 11.317 29.831 8.22705 32.771C1.96705 37.501 -0.642951 45.451 2.00705 53.381C2.00705 53.381 3.43705 57.241 5.76705 60.231C12.707 67.901 20.797 69.731 30.207 65.181C30.397 65.091 30.667 65.181 31.027 65.191C31.097 65.791 31.207 66.391 31.237 67.001C31.487 71.681 31.5671 73.241 33.7771 73.911L37.3171 74.411C37.8071 74.451 38.337 74.491 38.917 74.521C43.737 74.851 48.5471 75.191 53.3671 75.411C54.2071 75.451 54.987 75.581 55.7971 75.781C56.7471 76.011 57.7271 76.241 58.6971 76.121C59.6671 76.001 60.2171 72.201 60.2171 72.201H60.2271Z" fill="white"/>
<path d="M23.8371 40.5809C28.9871 42.2609 32.3271 49.5009 30.5071 54.6509C28.7071 59.7309 22.0271 62.1509 16.0671 59.8909C10.2371 57.6709 8.06706 52.4809 10.3871 46.3209C11.4971 41.0509 18.4371 38.8209 23.8371 40.5909V40.5809Z" fill="white" stroke="#0D402D" stroke-width="2" stroke-linecap="round" stroke-linejoin="round"/>
<path d="M63.3571 50.5208C65.3171 45.5908 71.6871 43.1108 77.1871 45.1208C82.0671 46.9108 85.3571 52.8308 83.7571 56.9508C81.7771 62.0408 74.5171 64.8608 68.9271 62.7108C64.1371 60.8708 61.5171 55.1408 63.3571 50.5208Z" fill="white" stroke="#0D402D" stroke-width="2" stroke-linecap="round" stroke-linejoin="round"/>
<path d="M45.077 60.1809C48.377 60.2609 51.577 60.0009 54.207 57.7609C54.897 57.1709 55.987 56.4009 55.117 55.3109C54.427 54.4509 53.637 55.1209 52.857 55.5909C47.387 58.8509 43.837 58.4009 39.347 53.9009C38.727 53.2809 38.237 52.4009 37.237 53.1909C36.247 53.9709 36.947 54.7509 37.387 55.4609C39.157 58.3309 42.037 59.4009 45.077 60.1809Z" fill="#0D402D"/>
<path d="M16.8271 48.8909C18.6671 49.3309 20.3771 48.9209 21.0471 46.7609C21.5571 45.1009 20.6571 43.8709 19.0471 43.3809C16.9771 42.7509 14.9171 43.0709 14.1871 45.2809C13.6071 47.0309 14.9571 48.2109 16.8271 48.8909Z" fill="#0D402D" stroke="#0D402D" stroke-width="2" stroke-linecap="round" stroke-linejoin="round"/>
<path d="M67.2271 49.881C66.6171 51.421 67.5472 52.451 68.9472 52.841C70.9972 53.411 73.0572 53.021 73.9072 50.831C74.4872 49.351 73.4371 48.201 71.9271 47.851C70.0071 47.411 68.2071 47.551 67.2271 49.881Z" fill="#0D402D" stroke="#0D402D" stroke-width="2" stroke-linecap="round" stroke-linejoin="round"/>
<path d="M46.537 15.4109C46.547 13.1809 47.447 11.0209 48.717 9.18092C52.087 4.28092 58.237 1.44092 64.147 2.06092C64.007 6.21092 63.827 10.5309 61.877 14.2009C60.137 17.4709 56.977 19.9209 53.437 20.9409C51.827 21.4009 50.107 21.8909 48.787 20.7409C47.287 19.4409 46.537 17.3709 46.537 15.4109Z" stroke="white" stroke-width="2" stroke-linecap="round" stroke-linejoin="round"/>
<path d="M49.617 21.2009C47.617 24.5709 46.477 28.4509 46.327 32.3709" stroke="white" stroke-width="2" stroke-linecap="round" stroke-linejoin="round"/>
</g>
<defs>
<clipPath id="clip0_4557_2110">
<rect width="92" height="89" fill="white"/>
</clipPath>
</defs>
</svg>
