<svg width="121" height="121" viewBox="0 0 121 121" fill="none" xmlns="http://www.w3.org/2000/svg">
<path d="M55.4272 60.4661C55.4272 61.8025 55.9581 63.0841 56.9031 64.0291C57.8481 64.974 59.1297 65.5049 60.4661 65.5049C61.8025 65.5049 63.0841 64.974 64.0291 64.0291C64.974 63.0841 65.5049 61.8025 65.5049 60.4661C65.5049 59.1297 64.974 57.8481 64.0291 56.9031C63.0841 55.9581 61.8025 55.4272 60.4661 55.4272C59.1297 55.4272 57.8481 55.9581 56.9031 56.9031C55.9581 57.8481 55.4272 59.1297 55.4272 60.4661Z" stroke="white" stroke-width="10.0777" stroke-linecap="round" stroke-linejoin="round"/>
<path d="M60.466 35.2717C55.4831 35.2717 50.6121 36.7493 46.4689 39.5177C42.3257 42.2861 39.0965 46.2209 37.1897 50.8245C35.2828 55.4281 34.7838 60.4939 35.756 65.381C36.7281 70.2682 39.1276 74.7574 42.6511 78.2809C46.1745 81.8043 50.6637 84.2039 55.5509 85.176C60.4381 86.1481 65.5038 85.6492 70.1074 83.7423C74.7111 81.8354 78.6459 78.6062 81.4142 74.463C84.1826 70.3199 85.6602 65.4488 85.6602 60.4659" stroke="white" stroke-width="10.0777" stroke-linecap="round" stroke-linejoin="round"/>
<path d="M65.5047 15.3931C56.1631 14.3451 46.7266 16.2259 38.5006 20.7755C30.2746 25.325 23.6657 32.3183 19.5881 40.7881C15.5104 49.2579 14.1655 58.7856 15.7395 68.0531C17.3135 77.3207 21.7285 85.8701 28.3738 92.5188C35.0191 99.1674 43.5663 103.587 52.833 105.165C62.0998 106.744 71.6281 105.404 80.1 101.331C88.5719 97.2572 95.5685 90.6518 100.122 82.4281C104.676 74.2044 106.561 64.7688 105.518 55.4267" stroke="white" stroke-width="10.0777" stroke-linecap="round" stroke-linejoin="round"/>
<path d="M75.5825 30.233V45.3495H90.699L105.816 30.233H90.699V15.1165L75.5825 30.233Z" stroke="white" stroke-width="10.0777" stroke-linecap="round" stroke-linejoin="round"/>
<path d="M75.5826 45.3496L60.4661 60.4661" stroke="white" stroke-width="10.0777" stroke-linecap="round" stroke-linejoin="round"/>
</svg>
