<svg width="24" height="37" viewBox="0 0 24 37" fill="none" xmlns="http://www.w3.org/2000/svg">
<path d="M11.7866 0.971924C11.4909 0.971924 11.2167 1.11792 11.0625 1.35733C10.6107 2.05896 -0.00323486 18.6196 -0.00323486 25.3763C-0.00323486 31.5457 5.28564 36.5648 11.7866 36.5648C18.2875 36.5648 23.5763 31.5457 23.5763 25.3763C23.5763 18.6196 12.9624 2.05896 12.5105 1.35733C12.3564 1.11792 12.0822 0.971924 11.7866 0.971924ZM11.7866 34.9543C6.22149 34.9543 1.69393 30.6576 1.69393 25.3763C1.69393 20.0395 9.36288 7.25576 11.7866 3.34924C14.2103 7.25576 21.8792 20.0395 21.8792 25.3763C21.8792 30.6576 17.3517 34.9543 11.7866 34.9543Z" fill="#0F402D"/>
<path d="M5.94665 18.4561C5.72085 18.966 5.50931 19.4634 5.31788 19.9347C4.01045 23.1537 3.8152 24.7256 3.8152 25.3761C3.8152 29.5473 7.39112 32.9409 11.7865 32.9409C16.1818 32.9409 19.7578 29.5473 19.7578 25.3761C19.7578 24.7239 19.5615 23.1471 18.2474 19.9158C18.0574 19.4486 17.8484 18.9576 17.6264 18.4563C17.4939 18.1574 17.1858 17.9631 16.8441 17.9631L6.72892 17.9629C6.38738 17.9629 6.07902 18.1573 5.94665 18.4561ZM7.29558 19.5734L16.2776 19.5736C16.4135 19.8888 16.5429 20.1974 16.6642 20.4957C17.96 23.682 18.0608 25.0368 18.0608 25.376C18.0608 28.6592 15.2462 31.3303 11.7866 31.3303C8.32698 31.3303 5.51237 28.6592 5.51237 25.376C5.51237 25.0377 5.61258 23.6874 6.90152 20.5139C7.02464 20.2106 7.15659 19.8958 7.29558 19.5734Z" fill="#0F402D"/>
</svg>
