<svg width="21" height="28" viewBox="0 0 21 28" fill="none" xmlns="http://www.w3.org/2000/svg">
<path d="M5.78126 7.44683C7.11179 7.80679 8.91356 8.00504 10.8546 8.00504C12.7956 8.00504 14.5974 7.80679 15.9279 7.44683C17.5594 7.00547 18.3866 6.35007 18.3866 5.49873C18.3866 4.64746 17.5594 3.99199 15.9279 3.55064C14.5973 3.19068 12.7956 2.99243 10.8546 2.99243C8.91356 2.99243 7.11185 3.19068 5.78126 3.55064C4.14976 3.99199 3.32254 4.64746 3.32254 5.49873C3.32254 6.35001 4.14976 7.00541 5.78126 7.44683ZM6.09155 4.6976C7.32382 4.36419 9.01539 4.18062 10.8546 4.18062C12.6938 4.18062 14.3853 4.36419 15.6176 4.6976C16.9236 5.05091 17.1984 5.4373 17.1984 5.49873C17.1984 5.56016 16.9237 5.94656 15.6176 6.29987C14.3853 6.63322 12.6938 6.81685 10.8546 6.81685C9.01539 6.81685 7.32382 6.63327 6.09155 6.29987C4.78556 5.94656 4.51073 5.56016 4.51073 5.49873C4.51073 5.4373 4.7855 5.05085 6.09155 4.6976Z" fill="#0DB14B"/>
<path d="M17.8118 2.04696C15.9436 1.23917 13.4729 0.794312 10.8546 0.794312C8.23629 0.794312 5.76552 1.23917 3.89739 2.04696C1.87099 2.92325 0.75499 4.1491 0.75499 5.49876V20.4992C0.75499 22.3032 1.84266 23.9786 3.8176 25.2169C5.70629 26.4011 8.2054 27.0532 10.8546 27.0532C13.5038 27.0532 16.0029 26.4011 17.8916 25.2168C19.8665 23.9786 20.9542 22.3031 20.9542 20.4991V5.49876C20.9542 4.1491 19.8382 2.92325 17.8118 2.04696ZM4.36898 3.1376C6.09155 2.39272 8.39486 1.9825 10.8546 1.9825C13.3143 1.9825 15.6176 2.39272 17.3402 3.1376C18.8818 3.80423 19.766 4.66477 19.766 5.49876C19.766 6.36905 18.8178 7.25656 17.1644 7.93365C16.9413 8.02502 16.7955 8.24228 16.7955 8.48343V15.6067C16.7955 15.8033 16.6356 15.9631 16.4391 15.9631C16.2425 15.9631 16.0826 15.8033 16.0826 15.6067V9.0881C16.0826 8.90595 15.9991 8.7339 15.8559 8.62126C15.7127 8.50862 15.5258 8.4678 15.3488 8.5107C14.7675 8.65132 14.1492 8.76455 13.5111 8.84725C13.215 8.88563 12.9933 9.13782 12.9933 9.43641V20.9536C12.9933 21.1502 12.8334 21.31 12.6369 21.31C12.4403 21.31 12.2804 21.1502 12.2804 20.9536V9.59331C12.2804 9.4319 12.2148 9.27743 12.0984 9.16545C11.9875 9.05863 11.8398 8.99922 11.6863 8.99922C11.6789 8.99922 11.6715 8.99934 11.664 8.99964C11.3909 9.00985 11.1185 9.01508 10.8546 9.01508C8.39486 9.01508 6.09155 8.60486 4.36898 7.85999C2.82737 7.19323 1.94318 6.33269 1.94318 5.49876C1.94318 4.66483 2.82737 3.80423 4.36898 3.1376ZM17.2604 24.2102C15.5584 25.2773 13.2834 25.8651 10.8546 25.8651C8.42575 25.8651 6.15079 25.2773 4.44877 24.2102C2.83301 23.1971 1.94318 21.8792 1.94318 20.4991V7.76879C2.44584 8.20747 3.10095 8.60605 3.89739 8.95044C5.76552 9.75829 8.23629 10.2032 10.8546 10.2032C10.9332 10.2032 11.0124 10.2027 11.0922 10.2018V20.9535C11.0922 21.8052 11.7852 22.4982 12.6369 22.4982C13.4886 22.4982 14.1815 21.8052 14.1815 20.9535V9.95149C14.4226 9.91377 14.6605 9.87182 14.8944 9.8259V15.6067C14.8944 16.4584 15.5874 17.1513 16.4391 17.1513C17.2908 17.1513 17.9837 16.4584 17.9837 15.6067V8.87416C18.703 8.54795 19.3002 8.17693 19.766 7.77129V20.4991C19.766 21.8792 18.8762 23.1971 17.2604 24.2102Z" fill="#0DB14B"/>
</svg>
