<svg width="35" height="40" viewBox="0 0 35 40" fill="none" xmlns="http://www.w3.org/2000/svg">
<path d="M34.8062 36.8132V30.7186C34.8062 29.0121 34.5624 27.3056 33.5872 25.5991C32.6121 23.8926 31.3932 22.4299 29.6867 21.4547C27.9802 20.2358 24.3234 19.992 22.6169 19.992L18.7163 24.1364L20.179 27.3056V34.6191L17.7412 37.3008L15.3033 34.6191V27.3056L17.0098 24.1364L12.8654 19.992C10.9152 19.992 7.25837 20.2358 5.55187 21.4547C3.84536 22.4299 2.87022 23.8926 1.89508 25.5991C0.919933 27.3056 0.676147 28.7683 0.676147 30.7186V36.8132C0.676147 36.8132 7.01458 39.4949 17.7412 39.4949C28.4677 39.4949 34.8062 36.8132 34.8062 36.8132ZM17.7412 0.73291C13.1092 0.73291 10.4276 5.12106 11.1589 9.99677C11.8903 14.8725 14.3282 18.2855 17.7412 18.2855C21.1542 18.2855 23.592 14.8725 24.3234 9.99677C25.0547 4.87727 22.3731 0.73291 17.7412 0.73291Z" fill="white"/>
</svg>
