<svg width="27" height="28" viewBox="0 0 27 28" fill="none" xmlns="http://www.w3.org/2000/svg">
<path d="M26.1664 7.56274H25.4725C25.0891 7.56274 24.7782 7.82878 24.7782 8.15684C24.7782 8.48484 25.0889 8.75075 25.4721 8.75093V25.8651H9.90046C9.90025 25.5371 9.58948 25.2713 9.20615 25.2713C8.82275 25.2713 8.51184 25.5374 8.51184 25.8654V26.4592C8.51184 26.7872 8.82275 27.0533 9.20615 27.0533H26.1663C26.5497 27.0533 26.8606 26.7872 26.8606 26.4592V8.15684C26.8607 7.82872 26.5498 7.56274 26.1664 7.56274Z" fill="#0DB14B"/>
<path d="M24.224 24.2029V5.90061C24.224 5.57255 23.9131 5.30652 23.5297 5.30652H22.8359C22.4525 5.30652 22.1416 5.57255 22.1416 5.90061C22.1416 6.22861 22.4522 6.49447 22.8354 6.49471V23.6088H7.26383C7.26355 23.2809 6.95285 23.0152 6.56952 23.0152C6.18613 23.0152 5.87521 23.2812 5.87521 23.6093V24.2029C5.87521 24.531 6.18613 24.797 6.56952 24.797H23.5297C23.9131 24.797 24.224 24.5311 24.224 24.2029Z" fill="#0DB14B"/>
<path d="M21.5873 21.9468V3.64451C21.5873 3.31645 21.2764 3.05042 20.893 3.05042H18.5922C18.2088 3.05042 17.8979 3.31645 17.8979 3.64451C17.8979 3.97257 18.2088 4.2386 18.5922 4.2386H20.1987V21.3527H4.62717C4.62697 21.0247 4.31619 20.759 3.93286 20.759C3.54947 20.759 3.23856 21.025 3.23856 21.3531V21.9468C3.23856 22.2749 3.54947 22.5409 3.93286 22.5409H20.893C21.2765 22.5409 21.5873 22.2749 21.5873 21.9468Z" fill="#0DB14B"/>
<path d="M18.9506 19.6907V5.73189C18.9506 5.71199 18.9494 5.6922 18.9471 5.6726C18.9454 5.65822 18.9425 5.64414 18.9397 5.63006C18.9386 5.62507 18.9381 5.61996 18.937 5.61497C18.933 5.59798 18.9279 5.58135 18.9222 5.56489C18.9215 5.56287 18.9211 5.56079 18.9204 5.55883C18.9145 5.54214 18.9074 5.5258 18.8999 5.50976C18.899 5.50792 18.8984 5.50601 18.8975 5.50423C18.8902 5.48908 18.8818 5.47447 18.8731 5.45997C18.8714 5.45718 18.8701 5.45433 18.8684 5.4516C18.8602 5.43858 18.8511 5.42617 18.8419 5.41375C18.8389 5.40971 18.8364 5.40555 18.8332 5.40157C18.8245 5.39046 18.815 5.38001 18.8055 5.36949C18.8011 5.36462 18.7972 5.35957 18.7926 5.35482C18.7821 5.34395 18.7708 5.33373 18.7595 5.32357C18.7553 5.31977 18.7515 5.31567 18.7472 5.31192L13.671 0.968322C13.6667 0.964579 13.6619 0.96143 13.6574 0.957806C13.6455 0.948123 13.6336 0.938439 13.6209 0.929468C13.6154 0.925547 13.6094 0.92222 13.6038 0.918477C13.5915 0.910338 13.5792 0.90214 13.5663 0.894713C13.5616 0.892099 13.5567 0.889842 13.552 0.887287C13.5375 0.879386 13.523 0.871603 13.5078 0.864652C13.5046 0.863167 13.5012 0.862038 13.498 0.860612C13.4811 0.853127 13.464 0.845998 13.4463 0.8397C13.4441 0.838928 13.4419 0.838393 13.4398 0.83768C13.4211 0.831205 13.402 0.825204 13.3825 0.820095C13.3801 0.819501 13.3778 0.819145 13.3754 0.818551C13.3562 0.813738 13.3367 0.809342 13.3169 0.805956C13.311 0.804946 13.3051 0.80453 13.2992 0.803639C13.2828 0.801203 13.2663 0.798708 13.2495 0.797282C13.2266 0.795321 13.2035 0.794312 13.1802 0.794312H1.29602C0.912627 0.794312 0.601715 1.06035 0.601715 1.38841V19.6907C0.601715 20.0188 0.912627 20.2848 1.29602 20.2848H18.2562C18.6397 20.2848 18.9506 20.0189 18.9506 19.6907ZM13.8744 2.82273L16.5801 5.13785H13.8744V2.82273ZM1.99033 19.0966V1.9825H12.4857V5.73189C12.4857 6.05995 12.7966 6.32598 13.18 6.32598H17.5619V19.0966H1.99033Z" fill="#0DB14B"/>
</svg>
