<svg width="50" height="50" viewBox="0 0 50 50" fill="none" xmlns="http://www.w3.org/2000/svg">
<path d="M33.314 33.1181L39.4086 16.8657L45.5033 33.1181C43.7358 34.4386 41.6027 35.1497 39.4086 35.1497C37.2145 35.1497 35.0814 34.4386 33.314 33.1181Z" stroke="white" stroke-width="3.00044" stroke-linecap="round" stroke-linejoin="round"/>
<path d="M4.87231 33.1181L10.967 16.8657L17.0616 33.1181C15.2942 34.4386 13.161 35.1497 10.967 35.1497C8.77289 35.1497 6.63976 34.4386 4.87231 33.1181Z" stroke="white" stroke-width="3.00044" stroke-linecap="round" stroke-linejoin="round"/>
<path d="M15.03 43.2759H35.3455" stroke="white" stroke-width="3.00044" stroke-linecap="round" stroke-linejoin="round"/>
<path d="M25.1877 6.70801V43.2759" stroke="white" stroke-width="3.00044" stroke-linecap="round" stroke-linejoin="round"/>
<path d="M6.90393 14.8342H10.967C15.0301 14.8342 21.1248 12.8027 25.1879 10.7711C29.251 12.8027 35.3456 14.8342 39.4087 14.8342H43.4718" stroke="white" stroke-width="3.00044" stroke-linecap="round" stroke-linejoin="round"/>
</svg>
