<svg width="50" height="50" viewBox="0 0 50 50" fill="none" xmlns="http://www.w3.org/2000/svg">
<path d="M37.4834 38.6422C37.9863 38.6838 38.4949 38.7049 39.0084 38.7049C41.1381 38.7049 43.1828 38.3408 45.0836 37.6714C45.0965 37.5097 45.103 37.3463 45.103 37.1813C45.103 33.8153 42.3744 31.0866 39.0084 31.0866C37.7334 31.0866 36.5498 31.4782 35.5713 32.1476M37.4834 38.6422C37.4835 38.6631 37.4836 38.684 37.4836 38.7049C37.4836 39.162 37.4584 39.6132 37.4094 40.0572C33.8404 42.105 29.7041 43.2759 25.2943 43.2759C20.8845 43.2759 16.7481 42.105 13.1791 40.0572C13.1301 39.6132 13.105 39.162 13.105 38.7049C13.105 38.6841 13.105 38.6633 13.1051 38.6425M37.4834 38.6422C37.4714 36.252 36.7714 34.0245 35.5713 32.1476M35.5713 32.1476C33.4059 28.7609 29.6123 26.5156 25.2943 26.5156C20.9768 26.5156 17.1836 28.7603 15.0181 32.1463M15.0181 32.1463C14.04 31.4777 12.857 31.0866 11.5828 31.0866C8.21683 31.0866 5.48816 33.8153 5.48816 37.1813C5.48816 37.3463 5.49472 37.5097 5.50758 37.6714C7.40837 38.3408 9.45306 38.7049 11.5828 38.7049C12.0955 38.7049 12.6032 38.6838 13.1051 38.6425M15.0181 32.1463C13.8175 34.0236 13.1171 36.2516 13.1051 38.6425M31.3889 14.3263C31.3889 17.6923 28.6603 20.421 25.2943 20.421C21.9283 20.421 19.1996 17.6923 19.1996 14.3263C19.1996 10.9604 21.9283 8.23169 25.2943 8.23169C28.6603 8.23169 31.3889 10.9604 31.3889 14.3263ZM43.5782 20.421C43.5782 22.9455 41.5317 24.992 39.0072 24.992C36.4827 24.992 34.4362 22.9455 34.4362 20.421C34.4362 17.8965 36.4827 15.85 39.0072 15.85C41.5317 15.85 43.5782 17.8965 43.5782 20.421ZM16.1523 20.421C16.1523 22.9455 14.1058 24.992 11.5813 24.992C9.05683 24.992 7.01033 22.9455 7.01033 20.421C7.01033 17.8965 9.05683 15.85 11.5813 15.85C14.1058 15.85 16.1523 17.8965 16.1523 20.421Z" stroke="white" stroke-width="3.00044" stroke-linecap="round" stroke-linejoin="round"/>
</svg>
