<svg width="121" height="121" viewBox="0 0 121 121" fill="none" xmlns="http://www.w3.org/2000/svg">
<path d="M68.2123 33.4451C66.5116 31.7445 63.8663 31.9335 62.1657 33.4451L52.7178 43.0819C51.0172 44.7825 51.0172 47.4279 52.7178 48.9396L59.1424 55.553L52.7178 62.3555C51.0172 64.0561 51.2062 66.7014 52.7178 68.4021C53.4737 69.1579 54.6074 69.5358 55.7411 69.5358C56.8749 69.5358 58.0086 69.1579 58.7644 68.2131L68.2123 58.5763C69.9129 56.8757 69.9129 54.2303 68.2123 52.7187L61.7877 46.1052L68.2123 39.4917C69.9129 37.7911 69.7239 34.9568 68.2123 33.4451Z" fill="white"/>
<path d="M104.114 47.0505C104.114 22.8641 84.4629 3.40161 60.4654 3.40161C36.468 3.40161 16.8165 22.8641 16.8165 47.0505C16.8165 64.0566 26.6423 78.9841 41.0029 86.1645V107.705C41.0029 113.185 45.5379 117.531 50.8287 117.531H71.047C76.5267 117.531 80.8727 112.996 80.8727 107.705V85.5976C94.6665 78.2283 104.114 63.6787 104.114 47.0505ZM72.3697 89.1878V107.705C72.3697 108.461 71.8028 109.028 71.047 109.028H50.8287C50.0728 109.028 49.506 108.461 49.506 107.705V89.1878C52.9072 90.1326 56.6863 90.6994 60.4654 90.6994C64.2446 90.6994 68.0237 90.1326 71.6139 89.1878H72.3697ZM60.4654 82.1964C41.0029 82.1964 25.3196 66.3241 25.3196 47.0505C25.3196 27.777 41.0029 11.9046 60.4654 11.9046C79.9279 11.9046 95.6113 27.777 95.6113 47.0505C95.6113 66.3241 79.9279 82.1964 60.4654 82.1964Z" fill="white"/>
</svg>
