<svg width="62" height="102" viewBox="0 0 62 102" fill="none" xmlns="http://www.w3.org/2000/svg">
<g clip-path="url(#clip0_4557_2125)">
<path d="M8.17004 100.69C12.71 99.4401 13.75 97.2101 11.45 94.4701C9.98004 92.7301 8.81004 90.8901 7.97004 88.8101C7.65004 88.0301 7.27004 87.1301 7.97004 86.4701" stroke="white" stroke-width="2" stroke-linecap="round" stroke-linejoin="round"/>
<path d="M27.86 99.6101C34.55 96.5101 31.19 92.2501 28.45 90.6701C27.21 89.9501 23.86 86.5001 23.86 86.5001" stroke="white" stroke-width="2" stroke-linecap="round" stroke-linejoin="round"/>
<path d="M18.01 89.3701C15.19 89.9001 8.64999 87.3801 7.95999 86.4701C-1.59001 73.9301 0.119995 65.5201 0.119995 65.5201C-0.360005 7.79008 33.61 7.79008 45.46 19.4501C52.13 27.1901 52.45 38.6701 46.15 47.3901C44.44 49.7601 42.6 52.0501 40.65 54.2301C36.86 58.4501 34.91 63.4301 34.32 68.9701C33.61 75.6901 32.06 82.2701 26.5 86.5101C20.91 90.7701 18.01 89.3801 18.01 89.3801V89.3701Z" fill="white"/>
<path d="M13.25 31.09C11.81 30.79 10.45 29.87 10.82 28.24C11.18 26.61 12.58 25.74 14.35 26.08C16.01 26.4 16.55 27.6 16.39 29.19C16.03 30.97 14.75 31.4 13.25 31.08V31.09Z" fill="#0D402D" stroke="#0D402D" stroke-width="2.15" stroke-linecap="round" stroke-linejoin="round"/>
<path d="M7.77001 69.09C10.5 68.25 13.45 68.07 16.33 67.8C17.66 67.67 18.74 68.46 19.08 69.86C19.47 71.46 18.93 72.85 17.89 74.08C15.78 76.41 9.53001 77.08 7.02001 75.25C4.52001 73.42 4.78001 70.02 7.77001 69.1V69.09Z" fill="white" stroke="#0D402D" stroke-width="2" stroke-linecap="round" stroke-linejoin="round"/>
<path d="M36.63 42.4101C37.82 43.7801 37.38 45.0601 36.22 46.0501C35.1 47.0101 33.55 47.5301 32.48 46.2501C31.41 44.9701 31.57 43.3301 32.92 42.1301C34.19 41.0101 35.47 41.3101 36.63 42.4101Z" fill="#0D402D" stroke="#0D402D" stroke-width="2.15" stroke-linecap="round" stroke-linejoin="round"/>
<path d="M39.33 20.09C39.41 16.62 39.63 13.1 40.76 9.81997C41.9 6.53997 44.06 3.48997 47.17 1.94997C50.28 0.409971 54.4 0.699971 56.84 3.15997C57.99 4.31997 58.71 5.83997 59.21 7.38997C60.47 11.3 60.47 15.61 59.21 19.52C52.54 16.21 48.18 8.85997 48.58 1.42997" stroke="white" stroke-width="2" stroke-linecap="round" stroke-linejoin="round"/>
</g>
<defs>
<clipPath id="clip0_4557_2125">
<rect width="61.15" height="101.69" fill="white"/>
</clipPath>
</defs>
</svg>
