<svg width="66" height="66" viewBox="0 0 66 66" fill="none" xmlns="http://www.w3.org/2000/svg">
<path d="M33 8.25C19.8 8.25 8.25 18.865 8.25 33C8.25 38.83 10.285 44.1925 13.6675 48.4275L8.25 53.8725L12.1275 57.75L17.545 52.3325C21.8075 55.715 27.17 57.75 33 57.75C39.325 57.75 45.6775 55.33 50.49 50.49C55.33 45.6775 57.75 39.325 57.75 33V8.25H33ZM52.25 33C52.25 38.1425 50.2425 42.9825 46.6125 46.6125C42.9825 50.2425 38.1425 52.25 33 52.25C22.385 52.25 13.75 43.615 13.75 33C13.75 27.775 15.785 22.88 19.525 19.2775C23.155 15.7025 27.94 13.75 33 13.75H52.25V33Z" fill="white"/>
<path d="M23.265 34.7325L34.4025 35.8325L27.6925 44.99C27.39 45.43 27.4175 46.035 27.8025 46.42C28.215 46.8325 28.9025 46.86 29.3425 46.4475L43.5325 33.715C44.44 32.89 43.945 31.3775 42.7075 31.2675L31.57 30.1675L38.28 21.01C38.5825 20.57 38.555 19.965 38.17 19.58C37.7575 19.1675 37.07 19.14 36.63 19.5525L22.44 32.285C21.56 33.11 22.055 34.6225 23.265 34.7325Z" fill="white"/>
</svg>
