<svg width="67" height="66" viewBox="0 0 67 66" fill="none" xmlns="http://www.w3.org/2000/svg">
<path fill-rule="evenodd" clip-rule="evenodd" d="M33.3642 28.1877H33.6358C35.4641 28.1876 37.0395 28.1875 38.3011 28.3571C38.9692 28.4469 39.6236 28.5925 40.2416 28.8436C40.2579 28.8261 40.2745 28.8088 40.2916 28.7918L43.0416 26.0418C43.847 25.2363 45.1529 25.2363 45.9584 26.0418C46.7639 26.8472 46.7639 28.1531 45.9584 28.9586L43.2084 31.7086C43.1914 31.7256 43.1741 31.7423 43.1566 31.7586C43.4077 32.3766 43.5533 33.031 43.6431 33.6991C43.8127 34.9607 43.8126 36.5361 43.8125 38.3644V38.636C43.8126 40.4643 43.8127 42.0397 43.6431 43.3013C43.5533 43.9694 43.4077 44.6238 43.1566 45.2418C43.1741 45.2581 43.1914 45.2747 43.2084 45.2918L45.9584 48.0418C46.7639 48.8472 46.7639 50.1531 45.9584 50.9586C45.1529 51.764 43.847 51.764 43.0416 50.9586L40.2916 48.2086L40.2722 48.1889L40.2416 48.1568C39.6236 48.4079 38.9692 48.5535 38.3011 48.6433C37.0395 48.8129 35.4641 48.8128 33.6358 48.8127H33.3642C31.5359 48.8128 29.9605 48.8129 28.6989 48.6433C28.0308 48.5535 27.3764 48.4079 26.7584 48.1568C26.7421 48.1743 26.7254 48.1916 26.7084 48.2086L23.9584 50.9586C23.153 51.764 21.847 51.764 21.0416 50.9586C20.2361 50.1531 20.2361 48.8472 21.0416 48.0418L23.7916 45.2918C23.8086 45.2747 23.8259 45.2581 23.8434 45.2418C23.5923 44.6238 23.4467 43.9694 23.3569 43.3013C23.1873 42.0397 23.1874 40.4644 23.1875 38.636V38.3644C23.1874 36.5361 23.1873 34.9607 23.3569 33.6991C23.4467 33.031 23.5923 32.3766 23.8434 31.7586C23.8259 31.7423 23.8086 31.7256 23.7916 31.7086L21.0416 28.9586C20.2361 28.1531 20.2361 26.8472 21.0416 26.0418C21.847 25.2363 23.153 25.2363 23.9584 26.0418L26.7084 28.7918C26.7254 28.8088 26.7421 28.8261 26.7584 28.8436C27.3764 28.5925 28.0308 28.4469 28.6989 28.3571C29.9605 28.1875 31.5359 28.1876 33.3642 28.1877ZM29.2486 32.4453C28.354 32.5656 28.0736 32.7598 27.9166 32.9168C27.7596 33.0738 27.5654 33.3542 27.4451 34.2488C27.3169 35.2027 27.3125 36.4973 27.3125 38.5002C27.3125 40.503 27.3169 41.7977 27.4451 42.7516C27.5654 43.6462 27.7596 43.9266 27.9166 44.0836C28.0736 44.2406 28.354 44.4348 29.2486 44.5551C30.2025 44.6833 31.4971 44.6877 33.5 44.6877C35.5028 44.6877 36.7975 44.6833 37.7514 44.5551C38.646 44.4348 38.9264 44.2406 39.0834 44.0836C39.2404 43.9266 39.4346 43.6462 39.5549 42.7516C39.6831 41.7977 39.6875 40.503 39.6875 38.5002C39.6875 36.4973 39.6831 35.2027 39.5549 34.2488C39.4346 33.3542 39.2404 33.0738 39.0834 32.9168C38.9264 32.7598 38.646 32.5656 37.7514 32.4453C36.7975 32.3171 35.5028 32.3127 33.5 32.3127C31.4971 32.3127 30.2025 32.3171 29.2486 32.4453Z" fill="white"/>
<path fill-rule="evenodd" clip-rule="evenodd" d="M50.3341 6.54022C53.5052 5.91598 56.3176 6.00818 58.7325 7.7548C61.1366 9.49362 62.1403 12.1453 62.6069 15.3815C63.0626 18.5428 63.0626 22.7134 63.0625 27.9653V43.8282C63.0626 47.6665 63.0626 50.7523 62.7427 53.1776C62.4115 55.6894 61.7042 57.801 60.056 59.4812C58.4024 61.1669 56.3152 61.8954 53.8326 62.2357C51.4458 62.5628 48.4121 62.5628 44.6534 62.5627H22.3466C18.5879 62.5628 15.5542 62.5628 13.1674 62.2357C10.6848 61.8954 8.59758 61.1669 6.94399 59.4812C5.29583 57.801 4.58852 55.6894 4.25726 53.1776C3.93741 50.7524 3.93745 47.6666 3.9375 43.8282V35.871C3.93746 33.089 3.93743 30.8315 4.14026 29.003C4.35149 27.0988 4.79951 25.4562 5.82857 23.9775C6.85983 22.4957 8.24009 21.5154 9.94447 20.6777C10.6188 20.3462 11.3725 20.024 12.2063 19.6952C12.1939 19.6037 12.1875 19.5103 12.1875 19.4154L12.1875 19.303C12.1874 17.6045 12.1874 16.1626 12.3162 14.9969C12.4522 13.7666 12.7526 12.5918 13.5317 11.5561C13.8789 11.0946 14.2847 10.6804 14.7393 10.3246C15.7653 9.52156 16.9342 9.2101 18.1547 9.06975C19.3044 8.93755 20.7239 8.93761 22.3845 8.93768L24.9941 8.93752C26.1453 8.93641 27.1112 8.93548 27.9585 9.16706C29.7757 9.66373 31.2598 10.9135 32.0903 12.5563L38.5257 10.2601C43.3812 8.5276 47.2487 7.1476 50.3341 6.54022ZM51.1309 10.5875C48.3836 11.1284 44.8061 12.399 39.7423 14.2058L17.7423 22.0554C15.0288 23.0236 13.1582 23.6944 11.7641 24.3796C10.4194 25.0406 9.70451 25.6295 9.21432 26.3339C8.72194 27.0413 8.40924 27.933 8.24011 29.4578C8.06544 31.0324 8.0625 33.0607 8.0625 35.9893V43.6795C8.0625 47.7014 8.06672 50.5142 8.34684 52.6382C8.61967 54.7069 9.12054 55.8094 9.88875 56.5926C10.6515 57.3702 11.717 57.8733 13.7276 58.1489C15.8016 58.4331 18.5515 58.4377 22.5 58.4377H44.5C48.4485 58.4377 51.1984 58.4331 53.2724 58.1489C55.283 57.8733 56.3485 57.3702 57.1113 56.5926C57.8795 55.8094 58.3803 54.7069 58.6532 52.6382C58.9333 50.5142 58.9375 47.7014 58.9375 43.6795V28.1396C58.9375 22.6741 58.9324 18.8023 58.5241 15.9701C58.1216 13.1779 57.3872 11.8726 56.3151 11.0972C55.2537 10.3296 53.8283 10.0565 51.1309 10.5875ZM28.1224 13.9721C27.8002 13.5716 27.3632 13.2807 26.8709 13.1461C26.6329 13.0811 26.2802 13.0627 24.75 13.0627H22.5C20.6919 13.0627 19.5119 13.0659 18.626 13.1677C17.7844 13.2645 17.4677 13.4273 17.2818 13.5729C17.1125 13.7054 16.9598 13.8609 16.8281 14.0359C16.6773 14.2364 16.5128 14.5769 16.4163 15.45C16.3398 16.1416 16.3196 17.0054 16.3144 18.1852L28.1224 13.9721Z" fill="white"/>
</svg>
