<svg width="65" height="65" viewBox="0 0 65 65" fill="none" xmlns="http://www.w3.org/2000/svg">
<path d="M49.8901 31.3083C49.6036 30.6737 49.2807 30.0561 48.9232 29.4585L35.6795 9.79602C34.542 8.10331 32.1938 7.62123 30.4361 8.72081C29.9949 8.99767 29.6166 9.36395 29.3257 9.79602L16.0738 29.4585C11.4832 37.1448 13.2707 46.9029 20.3178 52.6039C23.7832 55.3949 28.1046 56.9061 32.5541 56.8831" stroke="white" stroke-width="4" stroke-linecap="round" stroke-linejoin="round"/>
<path d="M46.0444 51.4584C46.0444 52.895 46.6151 54.2728 47.6309 55.2886C48.6468 56.3044 50.0245 56.8751 51.4611 56.8751C52.8977 56.8751 54.2754 56.3044 55.2913 55.2886C56.3071 54.2728 56.8778 52.895 56.8778 51.4584C56.8778 50.0218 56.3071 48.6441 55.2913 47.6283C54.2754 46.6124 52.8977 46.0417 51.4611 46.0417C50.0245 46.0417 48.6468 46.6124 47.6309 47.6283C46.6151 48.6441 46.0444 50.0218 46.0444 51.4584Z" stroke="white" stroke-width="4" stroke-linecap="round" stroke-linejoin="round"/>
<path d="M51.4609 41.9792V46.0417" stroke="white" stroke-width="4" stroke-linecap="round" stroke-linejoin="round"/>
<path d="M51.4609 56.875V60.9375" stroke="white" stroke-width="4" stroke-linecap="round" stroke-linejoin="round"/>
<path d="M59.67 46.7188L56.1519 48.75" stroke="white" stroke-width="4" stroke-linecap="round" stroke-linejoin="round"/>
<path d="M46.7728 54.1667L43.252 56.198" stroke="white" stroke-width="4" stroke-linecap="round" stroke-linejoin="round"/>
<path d="M43.252 46.7188L46.7728 48.75" stroke="white" stroke-width="4" stroke-linecap="round" stroke-linejoin="round"/>
<path d="M56.1519 54.1667L59.6727 56.198" stroke="white" stroke-width="4" stroke-linecap="round" stroke-linejoin="round"/>
</svg>
