<svg width="58" height="58" viewBox="0 0 58 58" fill="none" xmlns="http://www.w3.org/2000/svg">
<path fill-rule="evenodd" clip-rule="evenodd" d="M23.5625 6.34375C23.5625 5.84325 23.9682 5.4375 24.4688 5.4375H33.5312C34.0318 5.4375 34.4375 5.84325 34.4375 6.34375V10.875H23.5625V6.34375ZM39.875 6.34375V10.875H48.0312C49.5327 10.875 50.75 12.0922 50.75 13.5938C50.75 15.0953 49.5327 16.3125 48.0312 16.3125H9.96875C8.46724 16.3125 7.25 15.0953 7.25 13.5938C7.25 12.0922 8.46724 10.875 9.96875 10.875H18.125V6.34375C18.125 2.84019 20.9652 0 24.4688 0H33.5312C37.0348 0 39.875 2.84019 39.875 6.34375ZM16.299 24.1982C16.1496 22.7041 14.8173 21.6141 13.3232 21.7635C11.8291 21.9129 10.7391 23.2452 10.8885 24.7392L13.2808 48.6624C13.6051 51.9053 16.334 54.375 19.5931 54.375H38.4069C41.6661 54.375 44.395 51.9053 44.7191 48.6624L47.1116 24.7392C47.2609 23.2452 46.1709 21.9129 44.6767 21.7635C43.1828 21.6141 41.8503 22.7041 41.7009 24.1982L39.3088 48.1215C39.2624 48.5848 38.8723 48.9375 38.4069 48.9375H19.5931C19.1275 48.9375 18.7376 48.5848 18.6913 48.1215L16.299 24.1982Z" fill="#0DB14B"/>
</svg>
