<svg width="47" height="59" viewBox="0 0 47 59" fill="none" xmlns="http://www.w3.org/2000/svg">
<path d="M34 15.5V12.375C34 8.92187 31.2255 6.125 27.8 6.125H26.25C25.3944 6.125 24.7 5.425 24.7 4.5625C24.7 3.7 24.0056 3 23.15 3H13.85C12.9944 3 12.3 3.7 12.3 4.5625C12.3 5.425 11.6056 6.125 10.75 6.125H9.2C5.7745 6.125 3 8.92187 3 12.375V46.75C3 50.2031 5.7745 53 9.2 53" stroke="#0DB14B" stroke-width="6" stroke-linecap="round" stroke-linejoin="round"/>
<path d="M22 44.2862C22 35.2928 28.5686 28 36.6677 28H44V30.7138C44 39.7072 37.4314 47 29.3323 47H22V44.2862Z" stroke="#0DB14B" stroke-width="6" stroke-linecap="round" stroke-linejoin="round"/>
<path d="M22 56V47" stroke="#0DB14B" stroke-width="6" stroke-linecap="round" stroke-linejoin="round"/>
</svg>
