<svg width="45" height="51" viewBox="0 0 45 51" fill="none" xmlns="http://www.w3.org/2000/svg">
<path d="M22.2994 40.9773C22.2271 42.2064 21.8516 43.3984 21.2064 44.447C20.5612 45.4956 19.6664 46.3682 18.6019 46.9868C17.5374 47.6054 16.3363 47.9508 15.1058 47.9922C13.8753 48.0335 12.6537 47.7696 11.55 47.2239C10.4464 46.6782 9.49501 45.8677 8.78085 44.8648C8.06669 43.8619 7.61196 42.6978 7.45725 41.4763C7.30254 40.2549 7.45266 39.0142 7.89422 37.8649C8.33578 36.7156 9.05504 35.6935 9.98778 34.8899L9.92564 34.947C7.43422 34.0727 5.33221 32.3456 3.99126 30.0711C2.65032 27.7965 2.15683 25.1211 2.59804 22.5178C3.03926 19.9146 4.38676 17.5512 6.40229 15.8455C8.41782 14.1399 10.9715 13.2018 13.6119 13.1973C17.1267 13.1973 20.2611 14.8179 22.3118 17.3509C23.4003 16.0061 24.7859 14.9321 26.3596 14.2134C27.9334 13.4947 29.6524 13.1509 31.3815 13.2089C33.1106 13.267 34.8027 13.7253 36.3247 14.5479C37.8467 15.3705 39.1571 16.535 40.153 17.9497C41.1488 19.3644 41.803 20.9909 42.0639 22.7012C42.3248 24.4115 42.1855 26.159 41.6568 27.8063C41.1281 29.4537 40.2245 30.9559 39.0171 32.1949C37.8096 33.434 36.3312 34.376 34.698 34.947C35.6333 35.7709 36.3471 36.8161 36.7743 37.987C37.2015 39.1579 37.3284 40.4172 37.1433 41.6498C36.9583 42.8824 36.4672 44.0489 35.7151 45.0428C34.9629 46.0367 33.9736 46.8261 32.8377 47.3391C31.7017 47.852 30.4553 48.072 29.2124 47.979C27.9695 47.886 26.7697 47.4829 25.7227 46.8066C24.6757 46.1303 23.815 45.2024 23.2191 44.1076C22.6233 43.0129 22.3113 41.7862 22.3118 40.5398L22.2994 40.9773Z" stroke="#0DB14B" stroke-width="4.63352" stroke-linecap="round" stroke-linejoin="round"/>
<path d="M22.2993 43.0258V18.1689" stroke="#0DB14B" stroke-width="4.63352" stroke-linecap="round" stroke-linejoin="round"/>
<path d="M14.8423 3.25488L22.2994 8.22626L29.7564 3.25488" stroke="#0DB14B" stroke-width="4.63352" stroke-linecap="round" stroke-linejoin="round"/>
</svg>
