<svg width="70" height="70" viewBox="0 0 70 70" fill="none" xmlns="http://www.w3.org/2000/svg">
<g clip-path="url(#clip0_4009_1904)">
<path d="M26.25 38.0625C26.25 42.8167 30.1583 46.6667 35 46.6667C39.8417 46.6667 43.75 42.8167 43.75 38.0625C43.75 34.2417 42.2042 33.1333 35 24.7917C27.7667 33.1917 26.25 34.2708 26.25 38.0625Z" fill="#0DB14B"/>
<path d="M58.3333 37.9167C59.9375 37.9167 61.25 36.6042 61.25 35C61.25 33.3958 59.9375 32.0833 58.3333 32.0833H55.4167V14.5833H58.3333C59.9375 14.5833 61.25 13.2708 61.25 11.6667C61.25 10.0625 59.9375 8.75 58.3333 8.75H11.6667C10.0625 8.75 8.75 10.0625 8.75 11.6667C8.75 13.2708 10.0625 14.5833 11.6667 14.5833H14.5833V32.0833H11.6667C10.0625 32.0833 8.75 33.3958 8.75 35C8.75 36.6042 10.0625 37.9167 11.6667 37.9167H14.5833V55.4167H11.6667C10.0625 55.4167 8.75 56.7292 8.75 58.3333C8.75 59.9375 10.0625 61.25 11.6667 61.25H58.3333C59.9375 61.25 61.25 59.9375 61.25 58.3333C61.25 56.7292 59.9375 55.4167 58.3333 55.4167H55.4167V37.9167H58.3333ZM49.5833 55.4167H20.4167V37.9167C22.0208 37.9167 23.3333 36.6042 23.3333 35C23.3333 33.3958 22.0208 32.0833 20.4167 32.0833V14.5833H49.5833V32.0833C47.9792 32.0833 46.6667 33.3958 46.6667 35C46.6667 36.6042 47.9792 37.9167 49.5833 37.9167V55.4167Z" fill="#0DB14B"/>
</g>
<defs>
<clipPath id="clip0_4009_1904">
<rect width="70" height="70" fill="white"/>
</clipPath>
</defs>
</svg>
