<svg width="61" height="49" viewBox="0 0 61 49" fill="none" xmlns="http://www.w3.org/2000/svg">
<path d="M60.375 11.5C60.375 17.8513 55.2263 23 48.875 23C42.5237 23 37.375 17.8513 37.375 11.5C37.375 5.14873 42.5237 0 48.875 0C55.2263 0 60.375 5.14873 60.375 11.5Z" fill="#0DB14B"/>
<path d="M31.625 33.542C30.0372 33.542 28.75 32.2548 28.75 30.667C28.75 29.0792 30.0372 27.792 31.625 27.792H41.2083C42.7962 27.792 44.0833 29.0792 44.0833 30.667V40.2503C44.0833 41.8381 42.7962 43.1253 41.2083 43.1253C39.6205 43.1253 38.3333 41.8381 38.3333 40.2503V37.6079L30.6185 45.3227C27.9987 47.9424 23.7513 47.9424 21.1315 45.3227L15.0526 39.2438C14.6784 38.8696 14.0716 38.8696 13.6974 39.2438L4.90793 48.0333C3.78517 49.156 1.96483 49.156 0.842067 48.0333C-0.280689 46.9105 -0.280689 45.0902 0.842067 43.9674L9.63149 35.178C12.2513 32.5582 16.4987 32.5582 19.1185 35.178L25.1974 41.2568C25.5716 41.6311 26.1784 41.6311 26.5526 41.2568L34.2675 33.542H31.625Z" fill="#0DB14B"/>
</svg>
