<svg width="45" height="44" viewBox="0 0 45 44" fill="none" xmlns="http://www.w3.org/2000/svg">
<path fill-rule="evenodd" clip-rule="evenodd" d="M5.33299 5.28708C5.19848 5.9357 5.07884 6.72646 5.02035 7.59829C4.85705 10.0325 5.19122 12.7389 6.58779 14.8235C7.96931 16.8856 10.5278 18.315 13.0778 19.235C13.9524 19.5505 14.7781 19.789 15.4789 19.9651C15.6133 19.4001 15.7416 18.744 15.8299 18.0322C16.1198 15.6968 15.9382 13.1268 14.5897 11.114C13.1574 8.97603 10.5435 7.32528 7.97941 6.23162C6.99854 5.81324 6.08188 5.50073 5.33299 5.28708ZM19.937 22.5409C19.9653 22.4491 19.9942 22.3527 20.0237 22.2521C20.2861 21.356 20.594 20.097 20.775 18.6386C21.1289 15.7877 21.041 11.8084 18.737 8.36936C16.5169 5.05548 12.8578 2.92352 9.94442 1.68084C8.4516 1.0441 7.05408 0.598137 5.96661 0.329486C5.4283 0.1965 4.92484 0.0967312 4.4991 0.044101C4.29335 0.0186655 4.04411 -0.00369755 3.78924 0.000512628C3.66369 0.0025868 3.47736 0.0117254 3.2646 0.0506355C3.10521 0.0797844 2.65654 0.170461 2.19961 0.494655C1.86066 0.735146 1.65697 1.00474 1.57694 1.11508C1.47454 1.25625 1.3976 1.38875 1.34449 1.48701C1.23751 1.68497 1.14897 1.89038 1.0776 2.0728C0.931422 2.44641 0.788334 2.90172 0.657944 3.40502C0.395482 4.41811 0.150106 5.75883 0.0488074 7.26883C-0.149922 10.2312 0.184575 14.2009 2.44049 17.5682C4.71145 20.9579 8.497 22.8507 11.3778 23.89C12.863 24.4257 14.2165 24.7731 15.1999 24.9874C15.3451 25.019 15.4827 25.0478 15.6119 25.074C15.9206 25.5709 16.2562 26.063 16.6002 26.5675C18.2089 28.9265 20.0019 31.5558 20.0912 36.2074C19.9878 37.5122 20.0265 38.7886 20.062 39.9555C20.0787 40.5054 20.0946 41.0311 20.0946 41.5239C20.0946 42.8914 21.21 44 22.5859 44C23.9618 44 25.0772 42.8914 25.0772 41.5239V36.5718C25.0772 36.4865 25.0767 36.4017 25.0757 36.3171C25.1149 35.9506 25.1738 35.5828 25.2598 35.2004C25.6046 33.6665 26.4461 31.8513 28.7654 29.3785C28.8481 29.379 28.9342 29.379 29.0238 29.3786C29.8915 29.3743 31.0956 29.3242 32.4459 29.1387C35.0521 28.7807 38.6342 27.862 41.2144 25.3628C43.6632 22.9908 44.5824 19.8477 44.8766 17.4142C45.0266 16.1735 45.0257 15.0312 44.9492 14.1231C44.9111 13.6709 44.8517 13.2457 44.7718 12.8752C44.7202 12.6361 44.5858 12.0242 44.2238 11.4989C43.8084 10.8962 43.2516 10.6256 43.0355 10.5284C42.7529 10.4012 42.4772 10.3244 42.2599 10.275C41.8176 10.1745 41.3248 10.1227 40.8381 10.1009C39.8481 10.0564 38.6079 10.124 37.2765 10.3452C34.6636 10.7793 31.3061 11.8726 28.7951 14.3049C26.1722 16.8454 25.3718 20.2418 25.1522 22.7124C25.0395 23.9808 25.0708 25.1021 25.1295 25.9079C25.1315 25.9343 25.1334 25.9605 25.1354 25.9864C24.4302 26.7374 23.8151 27.4641 23.2803 28.1732C22.2783 25.9022 21.0718 24.1713 20.2556 23.0003C20.1412 22.8361 20.0344 22.683 19.937 22.5409ZM30.0592 24.3948C30.5738 24.3669 31.152 24.3172 31.7636 24.2332C34.0213 23.923 36.306 23.2022 37.7369 21.8163C39.0564 20.5382 39.7075 18.6607 39.9296 16.8234C40.0093 16.1643 40.0279 15.5535 40.0124 15.0427C39.4756 15.0549 38.8197 15.1097 38.098 15.2296C36.0084 15.5767 33.7726 16.3984 32.2726 17.8514C30.8845 19.196 30.2891 21.1948 30.1155 23.1481C30.0763 23.5894 30.0604 24.0099 30.0592 24.3948ZM39.875 13.8171C39.8754 13.8159 39.8806 13.831 39.8891 13.8659C39.8788 13.8357 39.8746 13.8183 39.875 13.8171Z" fill="#0DB14B"/>
</svg>
