<svg width="35" height="35" viewBox="0 0 35 35" fill="none" xmlns="http://www.w3.org/2000/svg">
<path d="M31.6823 9.02148H30.8909C30.4536 9.02148 30.099 9.37608 30.099 9.81334C30.099 10.2505 30.4534 10.605 30.8904 10.6052V33.4162H13.1311C13.1308 32.9791 12.7764 32.6249 12.3392 32.6249C11.902 32.6249 11.5474 32.9795 11.5474 33.4167V34.2081C11.5474 34.6454 11.902 35 12.3392 35H31.6822C32.1194 35 32.474 34.6454 32.474 34.2081V9.81334C32.4741 9.376 32.1195 9.02148 31.6823 9.02148Z" fill="white"/>
<path d="M29.467 31.201V6.80626C29.467 6.369 29.1124 6.0144 28.6751 6.0144H27.8838C27.4465 6.0144 27.0919 6.369 27.0919 6.80626C27.0919 7.24344 27.4462 7.5978 27.8832 7.59811V30.4092H10.124C10.1237 29.9721 9.76932 29.6179 9.33214 29.6179C8.89488 29.6179 8.54028 29.9725 8.54028 30.4097V31.201C8.54028 31.6383 8.89488 31.9929 9.33214 31.9929H28.6751C29.1124 31.9929 29.467 31.6384 29.467 31.201Z" fill="white"/>
<path d="M26.4598 28.1939V3.79918C26.4598 3.36192 26.1052 3.00732 25.6679 3.00732H23.0438C22.6066 3.00732 22.252 3.36192 22.252 3.79918C22.252 4.23644 22.6066 4.59103 23.0438 4.59103H24.876V27.4021H7.11679C7.11655 26.9649 6.76212 26.6107 6.32494 26.6107C5.88767 26.6107 5.53308 26.9653 5.53308 27.4026V28.1939C5.53308 28.6312 5.88767 28.9858 6.32494 28.9858H25.6679C26.1052 28.9858 26.4598 28.6312 26.4598 28.1939Z" fill="white"/>
<path d="M23.4526 25.1866V6.58119C23.4526 6.55466 23.4513 6.52829 23.4487 6.50216C23.4468 6.483 23.4434 6.46423 23.4402 6.44546C23.439 6.43881 23.4385 6.432 23.4371 6.42535C23.4326 6.4027 23.4267 6.38053 23.4203 6.3586C23.4195 6.35591 23.4191 6.35313 23.4183 6.35052C23.4115 6.32827 23.4035 6.30649 23.3948 6.28511C23.3939 6.28266 23.3932 6.28012 23.3921 6.27775C23.3837 6.25756 23.3742 6.23808 23.3643 6.21876C23.3624 6.21503 23.3609 6.21123 23.3589 6.20759C23.3496 6.19025 23.3392 6.1737 23.3287 6.15715C23.3253 6.15176 23.3224 6.14622 23.3188 6.14092C23.3089 6.12611 23.298 6.11217 23.2871 6.09816C23.2821 6.09166 23.2777 6.08493 23.2725 6.0786C23.2605 6.06411 23.2476 6.05049 23.2347 6.03695C23.2299 6.03188 23.2256 6.02641 23.2207 6.02142L17.4314 0.231934C17.4264 0.226946 17.4209 0.222749 17.4158 0.217919C17.4022 0.205011 17.3887 0.192104 17.3742 0.180147C17.3679 0.174921 17.361 0.170486 17.3546 0.165498C17.3406 0.154649 17.3266 0.143722 17.3119 0.133824C17.3066 0.130339 17.3009 0.12733 17.2956 0.123925C17.2791 0.113394 17.2625 0.10302 17.2452 0.0937557C17.2416 0.091776 17.2377 0.0902715 17.234 0.088371C17.2148 0.0783937 17.1952 0.0688914 17.175 0.0604977C17.1726 0.0594683 17.1701 0.0587557 17.1677 0.0578054C17.1463 0.0491742 17.1245 0.0411765 17.1023 0.0343665C17.0996 0.0335747 17.0969 0.0330995 17.0942 0.0323077C17.0723 0.0258937 17.0501 0.0200339 17.0274 0.0155204C17.0208 0.0141742 17.014 0.0136199 17.0073 0.0124321C16.9886 0.00918552 16.9698 0.00585973 16.9506 0.00395928C16.9245 0.00134615 16.8981 0 16.8716 0H3.31773C2.88047 0 2.52588 0.354593 2.52588 0.791855V25.1866C2.52588 25.6239 2.88047 25.9785 3.31773 25.9785H22.6607C23.098 25.9785 23.4526 25.624 23.4526 25.1866ZM17.6633 2.70363L20.7491 5.78941H17.6633V2.70363ZM4.10959 24.3948V1.58371H16.0795V6.58119C16.0795 7.01845 16.4341 7.37304 16.8714 7.37304H21.8688V24.3948H4.10959Z" fill="white"/>
</svg>
